<svg width="319" height="282" viewBox="0 0 319 282" fill="none" xmlns="http://www.w3.org/2000/svg">
<path d="M145.053 85.0779C143.045 75.1762 151.866 66.4729 161.74 68.6137L256.704 89.2042C267.574 91.561 271.487 105.041 263.57 112.852L187.916 187.494C179.998 195.306 166.572 191.211 164.362 180.311L145.053 85.0779Z" fill="#7E563D"/>
<path d="M198.264 24.2714C199.433 20.7837 203.841 19.71 206.483 22.2694L229.866 44.9196C232.692 47.658 231.394 52.4375 227.57 53.3689L193.84 61.5845C190.016 62.5159 186.665 58.8688 187.916 55.1373L198.264 24.2714Z" fill="#7E563D"/>
<path d="M126.725 47.2372C130.139 40.9957 139.103 40.9956 142.517 47.2372L223.208 194.763C226.489 200.76 222.148 208.082 215.312 208.082H53.9299C47.0938 208.082 42.7534 200.76 46.0339 194.763L126.725 47.2372Z" fill="#39312A"/>
<path d="M157.479 233.14C159.698 241.603 149.758 247.936 143.026 242.348L67.9474 180.036C66.5007 178.835 65.4664 177.211 64.9896 175.393L40.2449 81.0144C38.026 72.5513 47.9661 66.2187 54.6985 71.8064L129.777 134.119C131.223 135.319 132.258 136.943 132.735 138.762L157.479 233.14Z" fill="#39312A"/>
</svg>
